<svg xmlns="http://www.w3.org/2000/svg" version="1.1" xmlns:xlink="http://www.w3.org/1999/xlink" xmlns:svgjs="http://svgjs.dev/svgjs" width="2000" height="2000" viewBox="0 0 2000 2000"><g transform="matrix(1,0,0,1,0,0)"><svg viewBox="0 0 280 280" data-background-color="#ffffff" preserveAspectRatio="xMidYMid meet" height="2000" width="2000" xmlns="http://www.w3.org/2000/svg" xmlns:xlink="http://www.w3.org/1999/xlink"><g id="tight-bounds" transform="matrix(1,0,0,1,0,0)"><svg viewBox="0 0 280 280" height="280" width="280"><g><svg viewBox="0 0 280 280" height="280" width="280"><g><svg viewBox="0 0 280 280" height="280" width="280"><g id="textblocktransform"><svg viewBox="0 0 280 280" height="280" width="280" id="textblock"><g><svg viewBox="0 0 280 280" height="280" width="280"><g transform="matrix(1,0,0,1,74.01322884320939,74.00336708925556)"><svg viewBox="0 0 131.97354231358122 131.99326582148888" height="131.99326582148888" width="131.97354231358122"><g id="icon-0"><svg xmlns="http://www.w3.org/2000/svg" xmlns:xlink="http://www.w3.org/1999/xlink" version="1.1" x="0" y="0" viewBox="9.998313972081423 9.983749999999997 80.00429382141957 80.01625050072187" style="enable-background:new 0 0 100 100;" xml:space="preserve" height="131.99326582148888" width="131.97354231358122" class="icon-jxe-0" data-fill-palette-color="accent" id="jxe-0"><path d="M55.65 38.394C59.302 38.394 62.273 35.422 62.273 31.769S59.303 25.144 55.65 25.144 49.024 28.115 49.024 31.769 51.996 38.394 55.65 38.394M55.65 27.144C58.2 27.144 60.273 29.219 60.273 31.769S58.2 36.394 55.65 36.394 51.024 34.318 51.024 31.769 53.1 27.144 55.65 27.144" fill="#ff851b" data-fill-palette-color="accent"></path><path d="M60.274 71.22C60.274 67.188 56.992 63.905 52.957 63.905 48.923 63.904 45.641 67.187 45.641 71.221S48.923 78.537 52.957 78.537C56.992 78.537 60.274 75.255 60.274 71.221M47.641 71.22C47.64 68.29 50.025 65.905 52.957 65.905S58.274 68.29 58.274 71.221 55.89 76.537 52.957 76.537 47.641 74.152 47.641 71.221" fill="#ff851b" data-fill-palette-color="accent"></path><path d="M44.382 84.203C44.382 81.007 41.782 78.406 38.585 78.406S32.788 81.006 32.788 84.203 35.388 90 38.585 90 44.382 87.4 44.382 84.203M34.788 84.203C34.788 82.11 36.491 80.406 38.585 80.406S42.382 82.11 42.382 84.203 40.679 88 38.585 88 34.788 86.297 34.788 84.203" fill="#ff851b" data-fill-palette-color="accent"></path><path d="M86.247 60.914H80.275V42.574C80.275 37.948 76.513 34.186 71.887 34.186S63.498 37.948 63.498 42.574V50C63.498 53.522 60.632 56.389 57.109 56.389S50.721 53.522 50.721 50V48.222C50.72 43.596 46.958 39.833 42.332 39.833S33.943 43.596 33.943 48.222V60.466C33.943 63.988 31.078 66.854 27.556 66.854S21.167 63.988 21.167 60.466V48.872H26.58A3.757 3.757 0 0 0 30.333 45.12V24.151A3.75 3.75 0 0 0 27.991 20.68V11A1 1 0 0 0 26.991 10H13.341A1 1 0 0 0 12.342 11V20.679A3.755 3.755 0 0 0 10 24.15V45.12A3.757 3.757 0 0 0 13.753 48.872H19.167V60.466C19.167 65.092 22.93 68.854 27.556 68.854S35.943 65.092 35.943 60.466V48.222C35.943 44.699 38.81 41.833 42.332 41.833S48.721 44.699 48.721 48.222V50C48.72 54.626 52.483 58.389 57.109 58.389S65.498 54.626 65.498 50V42.574C65.498 39.052 68.364 36.186 71.887 36.186S78.275 39.052 78.275 42.574V60.914H72.304A3.757 3.757 0 0 0 68.55 64.667V75.849C68.55 77.47 69.59 78.843 71.035 79.365V89A1 1 0 0 0 72.035 90H86.515A1 1 0 0 0 87.516 89V79.365C88.96 78.843 90 77.471 90 75.85V64.667A3.757 3.757 0 0 0 86.247 60.914M25.991 12V20.398H14.341V12zM12 45.12V24.15C12 23.185 12.786 22.398 13.753 22.398H26.58C27.547 22.398 28.333 23.185 28.333 24.151V45.12C28.333 46.086 27.547 46.872 26.58 46.872H13.753A1.755 1.755 0 0 1 12 45.12M73.035 88V79.602H85.515V88zM88 75.849C88 76.815 87.214 77.602 86.247 77.602H72.304A1.755 1.755 0 0 1 70.55 75.849V64.667C70.55 63.7 71.337 62.914 72.304 62.914H86.247C87.214 62.914 88 63.7 88 64.667z" fill="#ff851b" data-fill-palette-color="accent"></path><path d="M51.458 18.545A1 1 0 0 0 50.938 17.667L48.739 16.466A9.56 9.56 0 0 1 44.938 12.664L43.735 10.466C43.385 9.823 42.331 9.823 41.981 10.466L40.78 12.664A9.56 9.56 0 0 1 36.98 16.466L34.78 17.668A0.998 0.998 0 0 0 34.78 19.422L36.98 20.624A9.55 9.55 0 0 1 40.779 24.424L41.981 26.624A0.998 0.998 0 0 0 43.735 26.623L44.938 24.425A9.55 9.55 0 0 1 48.738 20.625L50.938 19.423A1 1 0 0 0 51.458 18.545M47.779 18.87A11.54 11.54 0 0 0 43.184 23.466L42.858 24.06 42.533 23.466A11.54 11.54 0 0 0 37.938 18.87L37.344 18.545 37.938 18.22A11.55 11.55 0 0 0 42.533 13.623L42.858 13.029 43.184 13.623A11.55 11.55 0 0 0 47.779 18.221L48.373 18.545z" fill="#ff851b" data-fill-palette-color="accent"></path><path d="M10.52 78.414L12.719 79.618A9.53 9.53 0 0 1 16.519 83.418L17.723 85.616A0.998 0.998 0 0 0 19.476 85.617L20.68 83.418A9.53 9.53 0 0 1 24.48 79.618L26.68 78.413A1 1 0 0 0 26.678 76.66L24.479 75.457A9.53 9.53 0 0 1 20.68 71.657L19.476 69.457C19.126 68.818 18.07 68.816 17.722 69.459L16.519 71.657A9.53 9.53 0 0 1 12.719 75.458L10.52 76.66A0.998 0.998 0 0 0 10.52 78.414M13.678 77.213A11.53 11.53 0 0 0 18.273 72.616L18.6 72.022 18.924 72.616A11.53 11.53 0 0 0 23.52 77.212L24.114 77.537 23.521 77.862A11.54 11.54 0 0 0 18.925 82.458L18.599 83.053 18.274 82.459A11.54 11.54 0 0 0 13.68 77.863L13.084 77.537z" fill="#ff851b" data-fill-palette-color="accent"></path><path d="M89.48 19.745L86.694 18.223A12.35 12.35 0 0 1 81.777 13.305L80.255 10.52C79.905 9.878 78.85 9.878 78.5 10.52L76.979 13.304A12.35 12.35 0 0 1 72.059 18.223L69.276 19.745A0.998 0.998 0 0 0 69.275 21.5L72.06 23.021A12.37 12.37 0 0 1 76.979 27.941L78.5 30.724A0.998 0.998 0 0 0 80.255 30.725L81.778 27.94A12.35 12.35 0 0 1 86.695 23.021L89.48 21.5A0.998 0.998 0 0 0 89.48 19.745M85.734 21.268A14.34 14.34 0 0 0 80.023 26.98L79.378 28.161 78.732 26.981A14.34 14.34 0 0 0 73.02 21.268L71.839 20.622 73.019 19.978A14.34 14.34 0 0 0 78.732 14.264L79.378 13.084 80.023 14.264A14.3 14.3 0 0 0 85.736 19.977L86.916 20.622z" fill="#ff851b" data-fill-palette-color="accent"></path></svg></g></svg></g><g id="text-0"><path d="M32.759 89.994l-5.125 15.455-20.6-6.831 0.366-1.103 19.507 6.469 4.759-14.352z" fill="#111111" data-fill-palette-color="primary"></path><path d="M17.786 72.846l6.931-12.234 1.002 0.568-3.2 5.647 16.879 9.563 3.2-5.647 1.002 0.567-6.932 12.234-1.001-0.568 3.179-5.611-16.879-9.563-3.18 5.611z" fill="#111111" data-fill-palette-color="primary"></path><path d="M49.828 64.143l-0.77 0.856-16.13-14.52 0.811-0.901 21.079-1.41-10.942-9.851 0.777-0.863 16.13 14.52-0.777 0.863-3.984-3.586-21.211 1.375z" fill="#111111" data-fill-palette-color="primary"></path><path d="M66.907 47.431l-0.928 0.682-12.849-17.491 0.977-0.718 20.928 2.896-8.717-11.866 0.936-0.687 12.849 17.49-0.936 0.688-3.173-4.32-21.049-2.957z" fill="#111111" data-fill-palette-color="primary"></path><path d="M93.539 32.048c-1.34 0.615-2.725 0.877-4.157 0.787-1.435-0.081-2.766-0.491-3.994-1.228-1.237-0.74-2.219-1.732-2.946-2.975v0l1.046-0.48c0.642 1.058 1.494 1.896 2.556 2.515 1.068 0.616 2.216 0.96 3.444 1.031 1.232 0.062 2.422-0.17 3.571-0.696v0c1.272-0.584 2.292-1.43 3.062-2.538 0.77-1.108 1.214-2.355 1.333-3.74 0.122-1.379-0.13-2.751-0.756-4.115v0l-4.981-10.853-8.844 4.059-0.48-1.046 9.862-4.527 5.461 11.9c0.711 1.55 1.004 3.116 0.878 4.698-0.135 1.579-0.648 3.01-1.538 4.293-0.888 1.274-2.06 2.246-3.517 2.915z" fill="#111111" data-fill-palette-color="primary"></path><path d="M111.534 2.725c1.583-0.361 3.132-0.303 4.648 0.173 1.516 0.477 2.817 1.295 3.904 2.454 1.08 1.161 1.8 2.533 2.161 4.116v0l1.053 4.62c0.359 1.576 0.304 3.122-0.166 4.636-0.477 1.516-1.295 2.817-2.454 3.903-1.16 1.086-2.531 1.81-4.114 2.171v0c-1.576 0.359-3.122 0.301-4.638-0.175-1.516-0.477-2.817-1.295-3.904-2.455-1.086-1.16-1.809-2.528-2.168-4.104v0l-1.054-4.619c-0.361-1.583-0.303-3.132 0.174-4.648 0.477-1.516 1.295-2.817 2.454-3.904 1.16-1.086 2.528-1.809 4.104-2.168zM106.978 17.809c0.314 1.378 0.945 2.571 1.893 3.581 0.941 1.012 2.072 1.722 3.391 2.132 1.321 0.416 2.67 0.468 4.048 0.154v0c1.378-0.314 2.571-0.945 3.582-1.893 1.012-0.941 1.726-2.072 2.142-3.394 0.41-1.32 0.458-2.668 0.143-4.045v0l-1.053-4.62c-0.316-1.384-0.943-2.579-1.882-3.583-0.948-1.01-2.082-1.723-3.404-2.14-1.32-0.41-2.668-0.458-4.046-0.144v0c-1.378 0.314-2.572 0.942-3.583 1.883-1.01 0.948-1.72 2.082-2.13 3.401-0.418 1.314-0.469 2.664-0.154 4.048v0z" fill="#111111" data-fill-palette-color="primary"></path><path d="M133.074 22.081l-1.151 0.029-0.537-21.696 1.151-0.029 0.254 10.257 14.403-0.356-0.254-10.258 1.151-0.028 0.537 21.696-1.151 0.029-0.254-10.288-14.403 0.356z" fill="#111111" data-fill-palette-color="primary"></path><path d="M154.587 22.697l12.82-19.65 1.191 0.227 4.706 22.989-1.231-0.234-1.53-7.594-10.509-2.002-4.256 6.491zM167.707 4.629l-7.003 10.79 9.588 1.827z" fill="#111111" data-fill-palette-color="primary"></path><path d="M179.976 28.904l-1.067-0.435 8.184-20.1 1.123 0.457 8.481 19.349 5.551-13.636 1.076 0.438-8.183 20.101-1.076-0.438 2.021-4.964-8.492-19.486z" fill="#111111" data-fill-palette-color="primary"></path><path d="M213.785 34.968c-1.276-1.271-2.26-2.393-2.951-3.366-0.69-0.963-1.096-1.93-1.218-2.9-0.117-0.966 0.146-1.933 0.788-2.901v0c0.669-1.007 1.518-1.716 2.548-2.124 1.039-0.411 2.174-0.505 3.405-0.284 1.24 0.22 2.494 0.751 3.761 1.592v0c1.211 0.804 2.152 1.8 2.824 2.987 0.675 1.182 1.002 2.426 0.982 3.734-0.02 1.308-0.421 2.55-1.202 3.727v0l-0.959-0.637c0.676-1.019 1.022-2.086 1.036-3.201 0.015-1.115-0.27-2.173-0.854-3.171-0.584-0.999-1.403-1.848-2.455-2.547v0c-0.939-0.624-1.911-1.057-2.916-1.3-1.01-0.247-1.974-0.238-2.891 0.025-0.915 0.273-1.677 0.868-2.286 1.785v0c-0.552 0.832-0.748 1.656-0.588 2.471 0.16 0.815 0.541 1.611 1.143 2.386 0.608 0.779 1.516 1.781 2.725 3.007v0c1.225 1.237 2.143 2.25 2.753 3.038 0.606 0.794 0.977 1.684 1.113 2.671 0.13 0.983-0.179 2.038-0.926 3.164v0c-0.748 1.126-1.677 1.875-2.788 2.247-1.105 0.375-2.281 0.427-3.526 0.154-1.236-0.274-2.435-0.797-3.595-1.567v0c-1.437-0.954-2.524-2.063-3.26-3.325-0.735-1.263-1.067-2.575-0.994-3.938 0.067-1.366 0.519-2.68 1.357-3.942v0l0.968 0.642c-0.736 1.109-1.134 2.243-1.194 3.402-0.06 1.159 0.225 2.277 0.854 3.356 0.629 1.078 1.587 2.044 2.872 2.896v0c1.59 1.056 3.165 1.551 4.725 1.486 1.55-0.063 2.763-0.754 3.638-2.073v0c0.597-0.9 0.831-1.743 0.702-2.531-0.124-0.783-0.457-1.51-0.999-2.179-0.542-0.67-1.406-1.598-2.592-2.784z" fill="#111111" data-fill-palette-color="primary"></path><path d="M233.378 52.082c-0.992-1.503-1.727-2.802-2.208-3.895-0.48-1.083-0.681-2.112-0.604-3.086 0.082-0.97 0.535-1.863 1.36-2.681v0c0.859-0.851 1.834-1.372 2.926-1.563 1.101-0.192 2.231-0.054 3.391 0.412 1.17 0.467 2.29 1.241 3.361 2.322v0c1.023 1.033 1.742 2.199 2.159 3.498 0.421 1.294 0.489 2.579 0.204 3.856-0.285 1.276-0.929 2.411-1.933 3.405v0l-0.81-0.818c0.869-0.86 1.423-1.835 1.664-2.924 0.241-1.089 0.176-2.182-0.193-3.279-0.369-1.097-0.998-2.094-1.887-2.992v0c-0.793-0.801-1.657-1.423-2.592-1.865-0.939-0.446-1.885-0.634-2.836-0.561-0.951 0.082-1.818 0.51-2.6 1.284v0c-0.71 0.703-1.069 1.469-1.078 2.3-0.009 0.831 0.203 1.687 0.636 2.569 0.438 0.886 1.124 2.052 2.058 3.497v0c0.949 1.46 1.642 2.638 2.079 3.533 0.433 0.9 0.615 1.847 0.548 2.841-0.072 0.989-0.588 1.959-1.548 2.911v0c-0.96 0.951-2.022 1.496-3.186 1.634-1.158 0.143-2.32-0.045-3.484-0.564-1.155-0.52-2.222-1.274-3.202-2.264v0c-1.214-1.226-2.053-2.532-2.517-3.917-0.464-1.386-0.522-2.738-0.175-4.057 0.343-1.324 1.052-2.519 2.128-3.585v0l0.818 0.825c-0.946 0.937-1.566 1.966-1.86 3.089-0.294 1.123-0.242 2.276 0.156 3.459 0.398 1.184 1.139 2.323 2.224 3.419v0c1.343 1.356 2.785 2.161 4.326 2.413 1.531 0.252 2.859-0.178 3.983-1.292v0c0.767-0.76 1.167-1.539 1.2-2.336 0.037-0.792-0.141-1.571-0.536-2.336-0.395-0.766-1.052-1.85-1.972-3.252z" fill="#111111" data-fill-palette-color="primary"></path><path d="M258.701 66.085c0.877 1.366 1.349 2.843 1.416 4.431 0.067 1.588-0.261 3.089-0.983 4.505-0.725 1.41-1.771 2.554-3.137 3.431v0l-3.987 2.559c-1.36 0.873-2.833 1.346-4.417 1.419-1.588 0.067-3.089-0.261-4.505-0.983-1.416-0.722-2.562-1.766-3.439-3.132v0c-0.873-1.36-1.343-2.835-1.41-4.422-0.067-1.588 0.261-3.089 0.982-4.505 0.722-1.416 1.763-2.56 3.123-3.434v0l3.987-2.559c1.366-0.877 2.843-1.349 4.431-1.416 1.588-0.067 3.089 0.261 4.505 0.983 1.416 0.722 2.56 1.763 3.434 3.123zM242.966 66.923c-1.189 0.763-2.098 1.762-2.725 2.997-0.632 1.229-0.916 2.534-0.854 3.914 0.057 1.384 0.467 2.671 1.231 3.859v0c0.763 1.189 1.762 2.098 2.996 2.726 1.229 0.632 2.535 0.919 3.92 0.862 1.38-0.063 2.665-0.476 3.854-1.239v0l3.987-2.559c1.195-0.767 2.105-1.763 2.731-2.989 0.628-1.235 0.914-2.544 0.857-3.927-0.063-1.38-0.476-2.665-1.239-3.854v0c-0.763-1.189-1.759-2.099-2.989-2.732-1.235-0.628-2.542-0.911-3.922-0.848-1.378 0.053-2.665 0.464-3.86 1.231v0z" fill="#111111" data-fill-palette-color="primary"></path><path d="M247.744 92.779l-0.414-1.075 20.247-7.812 0.437 1.131-8.282 19.436 13.736-5.3 0.418 1.083-20.248 7.813-0.418-1.084 5-1.929 8.375-19.537z" fill="#111111" data-fill-palette-color="primary"></path><path d="M3.136 140.001c0-4.683 3.796-8.479 8.479-8.479 4.683 0 8.479 3.796 8.479 8.479 0 4.683-3.796 8.479-8.479 8.479-4.683 0-8.479-3.796-8.479-8.479z" fill="#111111" data-fill-palette-color="primary"></path><path d="M259.906 140.001c0-4.683 3.796-8.479 8.479-8.479 4.683 0 8.479 3.796 8.479 8.479 0 4.683-3.796 8.479-8.479 8.479-4.683 0-8.479-3.796-8.479-8.479z" fill="#111111" data-fill-palette-color="primary"></path></g><g id="text-1"></g></svg></g></svg></g></svg></g></svg></g><defs></defs><mask id="b78825de-55f1-4f75-9cc4-c5e0f837d061"><g id="SvgjsG1733"><svg viewBox="0 0 280 280" height="280" width="280"><g><svg viewBox="0 0 280 280" height="280" width="280"><g><svg viewBox="0 0 280 280" height="280" width="280"><g id="SvgjsG1732"><svg viewBox="0 0 280 280" height="280" width="280" id="SvgjsSvg1731"><g><svg viewBox="0 0 280 280" height="280" width="280"><g transform="matrix(1,0,0,1,74.01322884320939,74.00336708925556)"><svg viewBox="0 0 131.97354231358122 131.99326582148888" height="131.99326582148888" width="131.97354231358122"><g id="SvgjsG1730"><svg xmlns="http://www.w3.org/2000/svg" xmlns:xlink="http://www.w3.org/1999/xlink" version="1.1" x="0" y="0" viewBox="9.998313972081423 9.983749999999997 80.00429382141957 80.01625050072187" style="enable-background:new 0 0 100 100;" xml:space="preserve" height="131.99326582148888" width="131.97354231358122" class="icon-jxe-0" data-fill-palette-color="accent" id="SvgjsSvg1729"><path d="M55.65 38.394C59.302 38.394 62.273 35.422 62.273 31.769S59.303 25.144 55.65 25.144 49.024 28.115 49.024 31.769 51.996 38.394 55.65 38.394M55.65 27.144C58.2 27.144 60.273 29.219 60.273 31.769S58.2 36.394 55.65 36.394 51.024 34.318 51.024 31.769 53.1 27.144 55.65 27.144" fill="black"></path><path d="M60.274 71.22C60.274 67.188 56.992 63.905 52.957 63.905 48.923 63.904 45.641 67.187 45.641 71.221S48.923 78.537 52.957 78.537C56.992 78.537 60.274 75.255 60.274 71.221M47.641 71.22C47.64 68.29 50.025 65.905 52.957 65.905S58.274 68.29 58.274 71.221 55.89 76.537 52.957 76.537 47.641 74.152 47.641 71.221" fill="black"></path><path d="M44.382 84.203C44.382 81.007 41.782 78.406 38.585 78.406S32.788 81.006 32.788 84.203 35.388 90 38.585 90 44.382 87.4 44.382 84.203M34.788 84.203C34.788 82.11 36.491 80.406 38.585 80.406S42.382 82.11 42.382 84.203 40.679 88 38.585 88 34.788 86.297 34.788 84.203" fill="black"></path><path d="M86.247 60.914H80.275V42.574C80.275 37.948 76.513 34.186 71.887 34.186S63.498 37.948 63.498 42.574V50C63.498 53.522 60.632 56.389 57.109 56.389S50.721 53.522 50.721 50V48.222C50.72 43.596 46.958 39.833 42.332 39.833S33.943 43.596 33.943 48.222V60.466C33.943 63.988 31.078 66.854 27.556 66.854S21.167 63.988 21.167 60.466V48.872H26.58A3.757 3.757 0 0 0 30.333 45.12V24.151A3.75 3.75 0 0 0 27.991 20.68V11A1 1 0 0 0 26.991 10H13.341A1 1 0 0 0 12.342 11V20.679A3.755 3.755 0 0 0 10 24.15V45.12A3.757 3.757 0 0 0 13.753 48.872H19.167V60.466C19.167 65.092 22.93 68.854 27.556 68.854S35.943 65.092 35.943 60.466V48.222C35.943 44.699 38.81 41.833 42.332 41.833S48.721 44.699 48.721 48.222V50C48.72 54.626 52.483 58.389 57.109 58.389S65.498 54.626 65.498 50V42.574C65.498 39.052 68.364 36.186 71.887 36.186S78.275 39.052 78.275 42.574V60.914H72.304A3.757 3.757 0 0 0 68.55 64.667V75.849C68.55 77.47 69.59 78.843 71.035 79.365V89A1 1 0 0 0 72.035 90H86.515A1 1 0 0 0 87.516 89V79.365C88.96 78.843 90 77.471 90 75.85V64.667A3.757 3.757 0 0 0 86.247 60.914M25.991 12V20.398H14.341V12zM12 45.12V24.15C12 23.185 12.786 22.398 13.753 22.398H26.58C27.547 22.398 28.333 23.185 28.333 24.151V45.12C28.333 46.086 27.547 46.872 26.58 46.872H13.753A1.755 1.755 0 0 1 12 45.12M73.035 88V79.602H85.515V88zM88 75.849C88 76.815 87.214 77.602 86.247 77.602H72.304A1.755 1.755 0 0 1 70.55 75.849V64.667C70.55 63.7 71.337 62.914 72.304 62.914H86.247C87.214 62.914 88 63.7 88 64.667z" fill="black"></path><path d="M51.458 18.545A1 1 0 0 0 50.938 17.667L48.739 16.466A9.56 9.56 0 0 1 44.938 12.664L43.735 10.466C43.385 9.823 42.331 9.823 41.981 10.466L40.78 12.664A9.56 9.56 0 0 1 36.98 16.466L34.78 17.668A0.998 0.998 0 0 0 34.78 19.422L36.98 20.624A9.55 9.55 0 0 1 40.779 24.424L41.981 26.624A0.998 0.998 0 0 0 43.735 26.623L44.938 24.425A9.55 9.55 0 0 1 48.738 20.625L50.938 19.423A1 1 0 0 0 51.458 18.545M47.779 18.87A11.54 11.54 0 0 0 43.184 23.466L42.858 24.06 42.533 23.466A11.54 11.54 0 0 0 37.938 18.87L37.344 18.545 37.938 18.22A11.55 11.55 0 0 0 42.533 13.623L42.858 13.029 43.184 13.623A11.55 11.55 0 0 0 47.779 18.221L48.373 18.545z" fill="black"></path><path d="M10.52 78.414L12.719 79.618A9.53 9.53 0 0 1 16.519 83.418L17.723 85.616A0.998 0.998 0 0 0 19.476 85.617L20.68 83.418A9.53 9.53 0 0 1 24.48 79.618L26.68 78.413A1 1 0 0 0 26.678 76.66L24.479 75.457A9.53 9.53 0 0 1 20.68 71.657L19.476 69.457C19.126 68.818 18.07 68.816 17.722 69.459L16.519 71.657A9.53 9.53 0 0 1 12.719 75.458L10.52 76.66A0.998 0.998 0 0 0 10.52 78.414M13.678 77.213A11.53 11.53 0 0 0 18.273 72.616L18.6 72.022 18.924 72.616A11.53 11.53 0 0 0 23.52 77.212L24.114 77.537 23.521 77.862A11.54 11.54 0 0 0 18.925 82.458L18.599 83.053 18.274 82.459A11.54 11.54 0 0 0 13.68 77.863L13.084 77.537z" fill="black"></path><path d="M89.48 19.745L86.694 18.223A12.35 12.35 0 0 1 81.777 13.305L80.255 10.52C79.905 9.878 78.85 9.878 78.5 10.52L76.979 13.304A12.35 12.35 0 0 1 72.059 18.223L69.276 19.745A0.998 0.998 0 0 0 69.275 21.5L72.06 23.021A12.37 12.37 0 0 1 76.979 27.941L78.5 30.724A0.998 0.998 0 0 0 80.255 30.725L81.778 27.94A12.35 12.35 0 0 1 86.695 23.021L89.48 21.5A0.998 0.998 0 0 0 89.48 19.745M85.734 21.268A14.34 14.34 0 0 0 80.023 26.98L79.378 28.161 78.732 26.981A14.34 14.34 0 0 0 73.02 21.268L71.839 20.622 73.019 19.978A14.34 14.34 0 0 0 78.732 14.264L79.378 13.084 80.023 14.264A14.3 14.3 0 0 0 85.736 19.977L86.916 20.622z" fill="black"></path></svg></g></svg></g><g id="SvgjsG1728"><path d="M32.759 89.994l-5.125 15.455-20.6-6.831 0.366-1.103 19.507 6.469 4.759-14.352z" fill="black"></path><path d="M17.786 72.846l6.931-12.234 1.002 0.568-3.2 5.647 16.879 9.563 3.2-5.647 1.002 0.567-6.932 12.234-1.001-0.568 3.179-5.611-16.879-9.563-3.18 5.611z" fill="black"></path><path d="M49.828 64.143l-0.77 0.856-16.13-14.52 0.811-0.901 21.079-1.41-10.942-9.851 0.777-0.863 16.13 14.52-0.777 0.863-3.984-3.586-21.211 1.375z" fill="black"></path><path d="M66.907 47.431l-0.928 0.682-12.849-17.491 0.977-0.718 20.928 2.896-8.717-11.866 0.936-0.687 12.849 17.49-0.936 0.688-3.173-4.32-21.049-2.957z" fill="black"></path><path d="M93.539 32.048c-1.34 0.615-2.725 0.877-4.157 0.787-1.435-0.081-2.766-0.491-3.994-1.228-1.237-0.74-2.219-1.732-2.946-2.975v0l1.046-0.48c0.642 1.058 1.494 1.896 2.556 2.515 1.068 0.616 2.216 0.96 3.444 1.031 1.232 0.062 2.422-0.17 3.571-0.696v0c1.272-0.584 2.292-1.43 3.062-2.538 0.77-1.108 1.214-2.355 1.333-3.74 0.122-1.379-0.13-2.751-0.756-4.115v0l-4.981-10.853-8.844 4.059-0.48-1.046 9.862-4.527 5.461 11.9c0.711 1.55 1.004 3.116 0.878 4.698-0.135 1.579-0.648 3.01-1.538 4.293-0.888 1.274-2.06 2.246-3.517 2.915z" fill="black"></path><path d="M111.534 2.725c1.583-0.361 3.132-0.303 4.648 0.173 1.516 0.477 2.817 1.295 3.904 2.454 1.08 1.161 1.8 2.533 2.161 4.116v0l1.053 4.62c0.359 1.576 0.304 3.122-0.166 4.636-0.477 1.516-1.295 2.817-2.454 3.903-1.16 1.086-2.531 1.81-4.114 2.171v0c-1.576 0.359-3.122 0.301-4.638-0.175-1.516-0.477-2.817-1.295-3.904-2.455-1.086-1.16-1.809-2.528-2.168-4.104v0l-1.054-4.619c-0.361-1.583-0.303-3.132 0.174-4.648 0.477-1.516 1.295-2.817 2.454-3.904 1.16-1.086 2.528-1.809 4.104-2.168zM106.978 17.809c0.314 1.378 0.945 2.571 1.893 3.581 0.941 1.012 2.072 1.722 3.391 2.132 1.321 0.416 2.67 0.468 4.048 0.154v0c1.378-0.314 2.571-0.945 3.582-1.893 1.012-0.941 1.726-2.072 2.142-3.394 0.41-1.32 0.458-2.668 0.143-4.045v0l-1.053-4.62c-0.316-1.384-0.943-2.579-1.882-3.583-0.948-1.01-2.082-1.723-3.404-2.14-1.32-0.41-2.668-0.458-4.046-0.144v0c-1.378 0.314-2.572 0.942-3.583 1.883-1.01 0.948-1.72 2.082-2.13 3.401-0.418 1.314-0.469 2.664-0.154 4.048v0z" fill="black"></path><path d="M133.074 22.081l-1.151 0.029-0.537-21.696 1.151-0.029 0.254 10.257 14.403-0.356-0.254-10.258 1.151-0.028 0.537 21.696-1.151 0.029-0.254-10.288-14.403 0.356z" fill="black"></path><path d="M154.587 22.697l12.82-19.65 1.191 0.227 4.706 22.989-1.231-0.234-1.53-7.594-10.509-2.002-4.256 6.491zM167.707 4.629l-7.003 10.79 9.588 1.827z" fill="black"></path><path d="M179.976 28.904l-1.067-0.435 8.184-20.1 1.123 0.457 8.481 19.349 5.551-13.636 1.076 0.438-8.183 20.101-1.076-0.438 2.021-4.964-8.492-19.486z" fill="black"></path><path d="M213.785 34.968c-1.276-1.271-2.26-2.393-2.951-3.366-0.69-0.963-1.096-1.93-1.218-2.9-0.117-0.966 0.146-1.933 0.788-2.901v0c0.669-1.007 1.518-1.716 2.548-2.124 1.039-0.411 2.174-0.505 3.405-0.284 1.24 0.22 2.494 0.751 3.761 1.592v0c1.211 0.804 2.152 1.8 2.824 2.987 0.675 1.182 1.002 2.426 0.982 3.734-0.02 1.308-0.421 2.55-1.202 3.727v0l-0.959-0.637c0.676-1.019 1.022-2.086 1.036-3.201 0.015-1.115-0.27-2.173-0.854-3.171-0.584-0.999-1.403-1.848-2.455-2.547v0c-0.939-0.624-1.911-1.057-2.916-1.3-1.01-0.247-1.974-0.238-2.891 0.025-0.915 0.273-1.677 0.868-2.286 1.785v0c-0.552 0.832-0.748 1.656-0.588 2.471 0.16 0.815 0.541 1.611 1.143 2.386 0.608 0.779 1.516 1.781 2.725 3.007v0c1.225 1.237 2.143 2.25 2.753 3.038 0.606 0.794 0.977 1.684 1.113 2.671 0.13 0.983-0.179 2.038-0.926 3.164v0c-0.748 1.126-1.677 1.875-2.788 2.247-1.105 0.375-2.281 0.427-3.526 0.154-1.236-0.274-2.435-0.797-3.595-1.567v0c-1.437-0.954-2.524-2.063-3.26-3.325-0.735-1.263-1.067-2.575-0.994-3.938 0.067-1.366 0.519-2.68 1.357-3.942v0l0.968 0.642c-0.736 1.109-1.134 2.243-1.194 3.402-0.06 1.159 0.225 2.277 0.854 3.356 0.629 1.078 1.587 2.044 2.872 2.896v0c1.59 1.056 3.165 1.551 4.725 1.486 1.55-0.063 2.763-0.754 3.638-2.073v0c0.597-0.9 0.831-1.743 0.702-2.531-0.124-0.783-0.457-1.51-0.999-2.179-0.542-0.67-1.406-1.598-2.592-2.784z" fill="black"></path><path d="M233.378 52.082c-0.992-1.503-1.727-2.802-2.208-3.895-0.48-1.083-0.681-2.112-0.604-3.086 0.082-0.97 0.535-1.863 1.36-2.681v0c0.859-0.851 1.834-1.372 2.926-1.563 1.101-0.192 2.231-0.054 3.391 0.412 1.17 0.467 2.29 1.241 3.361 2.322v0c1.023 1.033 1.742 2.199 2.159 3.498 0.421 1.294 0.489 2.579 0.204 3.856-0.285 1.276-0.929 2.411-1.933 3.405v0l-0.81-0.818c0.869-0.86 1.423-1.835 1.664-2.924 0.241-1.089 0.176-2.182-0.193-3.279-0.369-1.097-0.998-2.094-1.887-2.992v0c-0.793-0.801-1.657-1.423-2.592-1.865-0.939-0.446-1.885-0.634-2.836-0.561-0.951 0.082-1.818 0.51-2.6 1.284v0c-0.71 0.703-1.069 1.469-1.078 2.3-0.009 0.831 0.203 1.687 0.636 2.569 0.438 0.886 1.124 2.052 2.058 3.497v0c0.949 1.46 1.642 2.638 2.079 3.533 0.433 0.9 0.615 1.847 0.548 2.841-0.072 0.989-0.588 1.959-1.548 2.911v0c-0.96 0.951-2.022 1.496-3.186 1.634-1.158 0.143-2.32-0.045-3.484-0.564-1.155-0.52-2.222-1.274-3.202-2.264v0c-1.214-1.226-2.053-2.532-2.517-3.917-0.464-1.386-0.522-2.738-0.175-4.057 0.343-1.324 1.052-2.519 2.128-3.585v0l0.818 0.825c-0.946 0.937-1.566 1.966-1.86 3.089-0.294 1.123-0.242 2.276 0.156 3.459 0.398 1.184 1.139 2.323 2.224 3.419v0c1.343 1.356 2.785 2.161 4.326 2.413 1.531 0.252 2.859-0.178 3.983-1.292v0c0.767-0.76 1.167-1.539 1.2-2.336 0.037-0.792-0.141-1.571-0.536-2.336-0.395-0.766-1.052-1.85-1.972-3.252z" fill="black"></path><path d="M258.701 66.085c0.877 1.366 1.349 2.843 1.416 4.431 0.067 1.588-0.261 3.089-0.983 4.505-0.725 1.41-1.771 2.554-3.137 3.431v0l-3.987 2.559c-1.36 0.873-2.833 1.346-4.417 1.419-1.588 0.067-3.089-0.261-4.505-0.983-1.416-0.722-2.562-1.766-3.439-3.132v0c-0.873-1.36-1.343-2.835-1.41-4.422-0.067-1.588 0.261-3.089 0.982-4.505 0.722-1.416 1.763-2.56 3.123-3.434v0l3.987-2.559c1.366-0.877 2.843-1.349 4.431-1.416 1.588-0.067 3.089 0.261 4.505 0.983 1.416 0.722 2.56 1.763 3.434 3.123zM242.966 66.923c-1.189 0.763-2.098 1.762-2.725 2.997-0.632 1.229-0.916 2.534-0.854 3.914 0.057 1.384 0.467 2.671 1.231 3.859v0c0.763 1.189 1.762 2.098 2.996 2.726 1.229 0.632 2.535 0.919 3.92 0.862 1.38-0.063 2.665-0.476 3.854-1.239v0l3.987-2.559c1.195-0.767 2.105-1.763 2.731-2.989 0.628-1.235 0.914-2.544 0.857-3.927-0.063-1.38-0.476-2.665-1.239-3.854v0c-0.763-1.189-1.759-2.099-2.989-2.732-1.235-0.628-2.542-0.911-3.922-0.848-1.378 0.053-2.665 0.464-3.86 1.231v0z" fill="black"></path><path d="M247.744 92.779l-0.414-1.075 20.247-7.812 0.437 1.131-8.282 19.436 13.736-5.3 0.418 1.083-20.248 7.813-0.418-1.084 5-1.929 8.375-19.537z" fill="black"></path><path d="M3.136 140.001c0-4.683 3.796-8.479 8.479-8.479 4.683 0 8.479 3.796 8.479 8.479 0 4.683-3.796 8.479-8.479 8.479-4.683 0-8.479-3.796-8.479-8.479z" fill="black"></path><path d="M259.906 140.001c0-4.683 3.796-8.479 8.479-8.479 4.683 0 8.479 3.796 8.479 8.479 0 4.683-3.796 8.479-8.479 8.479-4.683 0-8.479-3.796-8.479-8.479z" fill="black"></path></g><g id="SvgjsG1727"><path d="M12.161 196.838l-5.125-15.455 20.6-6.83 0.366 1.102-19.507 6.469 4.759 14.352z" fill="white"></path><path d="M36.67 196.457l6.931 12.234-1.001 0.567-3.2-5.647-16.879 9.563 3.2 5.648-1.002 0.567-6.931-12.234 1.001-0.567 3.18 5.611 16.879-9.563-3.18-5.611z" fill="white"></path><path d="M33.7 230.377l-0.771-0.856 16.131-14.519 0.811 0.901-0.806 21.111 10.942-9.85 0.777 0.863-16.13 14.52-0.777-0.864 3.983-3.585 0.857-21.239z" fill="white"></path><path d="M54.059 250.06l-0.927-0.682 12.848-17.49 0.978 0.718 3.493 20.835 8.717-11.865 0.936 0.687-12.849 17.491-0.936-0.688 3.173-4.319-3.47-20.97z" fill="white"></path><path d="M84.096 268.529c-1.34-0.615-2.442-1.494-3.307-2.639-0.874-1.141-1.432-2.417-1.673-3.829-0.245-1.42-0.133-2.812 0.335-4.173v0l1.046 0.48c-0.383 1.177-0.463 2.37-0.24 3.578 0.229 1.211 0.717 2.306 1.463 3.284 0.756 0.975 1.708 1.726 2.857 2.252v0c1.272 0.584 2.579 0.806 3.92 0.667 1.342-0.139 2.577-0.615 3.705-1.427 1.125-0.807 2.001-1.892 2.626-3.257v0l4.981-10.853-8.843-4.059 0.48-1.046 9.862 4.526-5.461 11.9c-0.711 1.55-1.708 2.793-2.989 3.729-1.285 0.927-2.705 1.472-4.259 1.633-1.545 0.158-3.046-0.097-4.503-0.766z" fill="white"></path><path d="M116.567 255.202c1.583 0.361 2.954 1.084 4.113 2.171 1.16 1.086 1.978 2.388 2.455 3.903 0.47 1.514 0.524 3.063 0.163 4.646v0l-1.053 4.62c-0.359 1.576-1.079 2.945-2.159 4.106-1.086 1.16-2.388 1.978-3.903 2.454-1.516 0.477-3.065 0.534-4.648 0.174v0c-1.576-0.359-2.944-1.082-4.104-2.169-1.16-1.086-1.978-2.388-2.454-3.904-0.477-1.516-0.535-3.062-0.176-4.638v0l1.053-4.619c0.361-1.583 1.084-2.954 2.171-4.114 1.086-1.16 2.388-1.978 3.903-2.455 1.516-0.477 3.062-0.535 4.639-0.175zM105.923 266.821c-0.314 1.378-0.263 2.727 0.154 4.048 0.41 1.32 1.121 2.45 2.132 3.391 1.01 0.948 2.204 1.579 3.582 1.893v0c1.378 0.314 2.727 0.263 4.048-0.154 1.32-0.41 2.453-1.12 3.401-2.13 0.941-1.012 1.569-2.206 1.883-3.583v0l1.053-4.62c0.316-1.384 0.268-2.733-0.144-4.046-0.416-1.321-1.13-2.456-2.14-3.403-1.012-0.941-2.206-1.569-3.584-1.883v0c-1.378-0.314-2.726-0.266-4.045 0.144-1.321 0.416-2.452 1.13-3.394 2.142-0.946 1.003-1.577 2.197-1.893 3.581v0z" fill="white"></path><path d="M132.537 279.615l-1.151-0.029 0.537-21.696 1.151 0.029-0.254 10.257 14.403 0.357 0.254-10.258 1.151 0.029-0.537 21.696-1.151-0.028 0.255-10.288-14.403-0.357z" fill="white"></path><path d="M158.649 278.622l4.696-22.988 1.191-0.227 12.83 19.649-1.231 0.234-4.215-6.499-10.51 2.003-1.57 7.601zM164.206 256.995l-2.545 12.61 9.588-1.827z" fill="white"></path><path d="M188.158 271.197l-1.066 0.435-8.184-20.101 1.123-0.457 19.585 7.923-5.552-13.636 1.076-0.438 8.183 20.1-1.075 0.438-2.021-4.963-19.687-8.014z" fill="white"></path><path d="M214.303 245.814c-1.667 0.682-3.083 1.153-4.248 1.413-1.155 0.261-2.204 0.26-3.145-0.004-0.936-0.267-1.725-0.885-2.367-1.853v0c-0.669-1.007-0.992-2.065-0.969-3.172 0.025-1.117 0.378-2.2 1.061-3.248 0.684-1.057 1.66-2.007 2.927-2.848v0c1.211-0.804 2.494-1.285 3.849-1.442 1.351-0.163 2.625 0.018 3.823 0.544 1.197 0.526 2.186 1.378 2.968 2.555v0l-0.96 0.637c-0.676-1.019-1.525-1.751-2.547-2.198-1.022-0.447-2.107-0.595-3.255-0.445-1.148 0.15-2.248 0.575-3.3 1.274v0c-0.939 0.624-1.716 1.351-2.33 2.182-0.62 0.835-0.986 1.727-1.099 2.674-0.104 0.949 0.149 1.882 0.757 2.8v0c0.552 0.832 1.235 1.333 2.049 1.501 0.814 0.169 1.694 0.127 2.642-0.127 0.954-0.258 2.23-0.706 3.829-1.343v0c1.616-0.649 2.905-1.101 3.869-1.358 0.967-0.251 1.932-0.247 2.894 0.012 0.957 0.262 1.809 0.956 2.556 2.082v0c0.748 1.126 1.077 2.273 0.988 3.441-0.083 1.164-0.492 2.267-1.228 3.31-0.733 1.033-1.68 1.934-2.839 2.704v0c-1.437 0.954-2.881 1.525-4.33 1.713-1.449 0.187-2.787-0.017-4.015-0.613-1.233-0.592-2.268-1.519-3.106-2.781v0l0.968-0.643c0.736 1.109 1.627 1.916 2.671 2.422 1.045 0.505 2.186 0.677 3.424 0.515 1.238-0.161 2.499-0.669 3.785-1.521v0c1.59-1.056 2.658-2.315 3.203-3.778 0.544-1.453 0.378-2.839-0.497-4.158v0c-0.597-0.9-1.284-1.443-2.06-1.629-0.77-0.19-1.569-0.165-2.397 0.075-0.828 0.239-2.018 0.675-3.571 1.307z" fill="white"></path><path d="M234.042 228.579c-1.494 1.006-2.785 1.755-3.872 2.245-1.078 0.49-2.105 0.702-3.081 0.634-0.971-0.072-1.869-0.517-2.694-1.334v0c-0.859-0.851-1.39-1.821-1.592-2.91-0.202-1.099-0.076-2.231 0.38-3.395 0.455-1.174 1.218-2.302 2.289-3.383v0c1.023-1.033 2.182-1.764 3.476-2.193 1.29-0.434 2.574-0.515 3.854-0.242 1.279 0.272 2.42 0.906 3.424 1.899v0l-0.81 0.819c-0.869-0.86-1.849-1.406-2.94-1.636-1.091-0.23-2.184-0.155-3.278 0.225-1.093 0.38-2.084 1.019-2.973 1.917v0c-0.793 0.801-1.406 1.671-1.839 2.609-0.437 0.944-0.615 1.891-0.534 2.842 0.091 0.951 0.528 1.813 1.31 2.587v0c0.71 0.703 1.48 1.054 2.311 1.055 0.831 0.001 1.685-0.22 2.561-0.661 0.882-0.446 2.041-1.144 3.477-2.092v0c1.451-0.963 2.622-1.668 3.513-2.114 0.896-0.441 1.841-0.633 2.836-0.575 0.99 0.062 1.965 0.569 2.925 1.52v0c0.96 0.951 1.516 2.008 1.666 3.169 0.155 1.157-0.022 2.32-0.531 3.49-0.508 1.16-1.252 2.235-2.232 3.224v0c-1.214 1.226-2.512 2.078-3.892 2.555-1.381 0.477-2.733 0.549-4.056 0.215-1.327-0.33-2.529-1.028-3.605-2.094v0l0.817-0.825c0.946 0.937 1.982 1.547 3.107 1.829 1.125 0.283 2.278 0.219 3.458-0.19 1.18-0.409 2.312-1.162 3.396-2.257v0c1.343-1.356 2.133-2.806 2.371-4.349 0.237-1.533-0.206-2.857-1.33-3.97v0c-0.767-0.76-1.55-1.152-2.348-1.178-0.793-0.03-1.57 0.157-2.331 0.559-0.762 0.402-1.839 1.07-3.233 2.005z" fill="white"></path><path d="M239.647 201.686c0.877-1.366 2.023-2.41 3.439-3.132 1.416-0.722 2.917-1.049 4.505-0.983 1.584 0.072 3.059 0.547 4.425 1.424v0l3.988 2.56c1.36 0.873 2.403 2.015 3.128 3.425 0.722 1.416 1.049 2.917 0.983 4.505-0.067 1.588-0.539 3.065-1.416 4.431v0c-0.873 1.36-2.018 2.402-3.433 3.123-1.416 0.722-2.917 1.049-4.505 0.983-1.588-0.067-3.062-0.537-4.423-1.41v0l-3.987-2.56c-1.366-0.877-2.41-2.023-3.132-3.439-0.722-1.416-1.049-2.917-0.982-4.505 0.067-1.588 0.537-3.062 1.41-4.422zM246.96 215.643c1.189 0.763 2.475 1.173 3.86 1.23 1.38 0.063 2.685-0.222 3.914-0.853 1.235-0.628 2.234-1.537 2.996-2.726v0c0.763-1.189 1.173-2.475 1.231-3.86 0.063-1.38-0.22-2.688-0.848-3.922-0.632-1.229-1.542-2.225-2.731-2.988v0l-3.988-2.56c-1.195-0.767-2.479-1.18-3.854-1.239-1.384-0.057-2.693 0.229-3.927 0.857-1.229 0.632-2.225 1.542-2.989 2.731v0c-0.763 1.189-1.176 2.474-1.239 3.854-0.057 1.384 0.23 2.69 0.862 3.92 0.622 1.231 1.531 2.23 2.726 2.996v0z" fill="white"></path><path d="M267.99 195.035l-0.415 1.074-20.247-7.812 0.436-1.131 19.19-8.836-13.736-5.3 0.418-1.083 20.248 7.812-0.418 1.084-5-1.93-19.326 8.849z" fill="white"></path></g></svg></g></svg></g></svg></g></svg></g><defs><mask></mask></defs></svg><rect width="280" height="280" fill="black" stroke="none" visibility="hidden"></rect></g></mask><linearGradient x1="0.054" x2="0.941" y1="0.5" y2="0.5" id="3c14f997-a241-4357-8cc3-5d041b2410a6"><stop stop-color="#8c8c8c" offset="0"></stop><stop stop-color="#e3e4e5" offset="0.498"></stop><stop stop-color="#8c8c8c" offset="1"></stop></linearGradient><rect width="280" height="280" fill="url(#3c14f997-a241-4357-8cc3-5d041b2410a6)" mask="url(#b78825de-55f1-4f75-9cc4-c5e0f837d061)" data-fill-palette-color="secondary"></rect></svg><rect width="280" height="280" fill="none" stroke="none" visibility="hidden"></rect></g></svg></g></svg>